<svg width="216" height="200" viewBox="0 0 216 200" fill="none" xmlns="http://www.w3.org/2000/svg">
<path d="M54.5269 94.1529C43.3596 75.3681 64.2741 51.8491 83.059 40.6819C101.844 29.5146 134.335 30.8092 145.502 49.594C156.669 68.3789 131.825 79.9476 113.04 91.1149C94.2556 102.282 65.6941 112.938 54.5269 94.1529Z" fill="#FF5B2E" fill-opacity="0.18"/>
<path d="M154.405 104.622C149.014 95.553 157.384 82.215 166.453 76.824C175.521 71.4329 190.54 69.2794 195.931 78.3479C201.322 87.4164 194.125 100.057 185.056 105.448C175.988 110.839 159.796 113.69 154.405 104.622Z" fill="#FF5B2E" fill-opacity="0.18"/>
<path d="M99.8611 134.837C99.7266 124.287 113.644 116.921 124.193 116.787C134.742 116.652 148.826 122.297 148.96 132.846C149.095 143.395 136.542 150.744 125.993 150.878C115.443 151.013 99.9957 145.386 99.8611 134.837Z" fill="#FF5B2E" fill-opacity="0.18"/>
<path d="M38.7023 126.663C43.1051 117.075 58.8367 116.39 68.4241 120.793C78.0115 125.195 88.3131 136.335 83.9103 145.922C79.5076 155.509 65.0158 156.764 55.4285 152.361C45.8411 147.958 34.2995 136.25 38.7023 126.663Z" fill="#FF5B2E" fill-opacity="0.18"/>
</svg>
