<svg width="224" height="64" viewBox="0 0 224 64" fill="none" xmlns="http://www.w3.org/2000/svg">
<path d="M64.6808 48.3405C64.6808 59.2452 49.7132 64.0001 38.8085 64.0001C27.9038 64.0001 14.2979 55.1601 14.2979 44.2554C14.2979 33.3507 27.9038 34.7235 38.8085 34.7235C49.7132 34.7235 64.6808 37.4358 64.6808 48.3405Z" fill="#FF5B2E"/>
<path d="M24.5106 18.383C24.5106 23.6473 17.5196 27.234 12.2553 27.234C6.99099 27.234 0 24.3282 0 19.0638C0 13.7995 6.31014 10.2128 11.5745 10.2128C16.8388 10.2128 24.5106 13.1186 24.5106 18.383Z" fill="#FF5B2E"/>
<path d="M55.6099 19.3309C52.9777 23.89 45.13 23.5007 40.5709 20.8685C36.0119 18.2363 31.4104 12.2243 34.0426 7.66524C36.6748 3.1062 43.9329 3.15507 48.4919 5.78723C53.051 8.4194 58.242 14.7719 55.6099 19.3309Z" fill="#FF5B2E"/>
<path d="M79.758 38.4316C75.4249 41.4212 68.5025 37.7038 65.5129 33.3707C62.5234 29.0376 60.9451 21.6331 65.2781 18.6435C69.6112 15.6539 76.147 18.811 79.1365 23.144C82.1261 27.4771 84.091 35.4421 79.758 38.4316Z" fill="#FF5B2E"/>
<path d="M105.291 46V20.62H116.559C119.343 20.62 121.467 21.292 122.931 22.636C124.395 23.98 125.127 25.828 125.127 28.18C125.127 30.508 124.395 32.356 122.931 33.724C121.467 35.092 119.343 35.776 116.559 35.776H109.935V46H105.291ZM109.935 32.104H116.019C117.555 32.104 118.707 31.768 119.475 31.096C120.243 30.4 120.627 29.428 120.627 28.18C120.627 26.932 120.243 25.972 119.475 25.3C118.707 24.604 117.555 24.256 116.019 24.256H109.935V32.104ZM136.813 46.36C133.765 46.36 131.377 45.52 129.649 43.84C127.921 42.16 127.057 39.856 127.057 36.928C127.057 35.032 127.429 33.376 128.173 31.96C128.917 30.544 129.949 29.44 131.269 28.648C132.613 27.856 134.173 27.46 135.949 27.46C137.701 27.46 139.165 27.832 140.341 28.576C141.517 29.32 142.405 30.364 143.005 31.708C143.629 33.052 143.941 34.624 143.941 36.424V37.612H130.693V35.236H140.737L140.125 35.74C140.125 34.06 139.765 32.776 139.045 31.888C138.349 31 137.329 30.556 135.985 30.556C134.497 30.556 133.345 31.084 132.529 32.14C131.737 33.196 131.341 34.672 131.341 36.568V37.036C131.341 39.004 131.821 40.48 132.781 41.464C133.765 42.424 135.145 42.904 136.921 42.904C137.953 42.904 138.913 42.772 139.801 42.508C140.713 42.22 141.577 41.764 142.393 41.14L143.725 44.164C142.861 44.86 141.829 45.4 140.629 45.784C139.429 46.168 138.157 46.36 136.813 46.36ZM147.751 46V32.356C147.751 31.612 147.727 30.856 147.679 30.088C147.631 29.32 147.559 28.564 147.463 27.82H151.819L152.179 31.42H151.747C152.323 30.148 153.175 29.176 154.303 28.504C155.431 27.808 156.739 27.46 158.227 27.46C160.363 27.46 161.971 28.06 163.051 29.26C164.131 30.46 164.671 32.332 164.671 34.876V46H160.171V35.092C160.171 33.628 159.883 32.584 159.307 31.96C158.755 31.312 157.915 30.988 156.787 30.988C155.395 30.988 154.291 31.42 153.475 32.284C152.659 33.148 152.251 34.3 152.251 35.74V46H147.751ZM176.499 46.36C174.915 46.36 173.511 45.988 172.287 45.244C171.087 44.476 170.151 43.384 169.479 41.968C168.807 40.552 168.471 38.86 168.471 36.892C168.471 34.924 168.807 33.244 169.479 31.852C170.151 30.436 171.087 29.356 172.287 28.612C173.511 27.844 174.915 27.46 176.499 27.46C178.011 27.46 179.343 27.832 180.495 28.576C181.671 29.296 182.451 30.28 182.835 31.528H182.367V19.504H186.867V46H182.439V42.148H182.871C182.487 43.444 181.707 44.476 180.531 45.244C179.379 45.988 178.035 46.36 176.499 46.36ZM177.759 42.904C179.175 42.904 180.315 42.412 181.179 41.428C182.043 40.42 182.475 38.908 182.475 36.892C182.475 34.876 182.043 33.376 181.179 32.392C180.315 31.408 179.175 30.916 177.759 30.916C176.343 30.916 175.191 31.408 174.303 32.392C173.439 33.376 173.007 34.876 173.007 36.892C173.007 38.908 173.439 40.42 174.303 41.428C175.191 42.412 176.343 42.904 177.759 42.904ZM200.551 46.36C197.503 46.36 195.115 45.52 193.387 43.84C191.659 42.16 190.795 39.856 190.795 36.928C190.795 35.032 191.167 33.376 191.911 31.96C192.655 30.544 193.687 29.44 195.007 28.648C196.351 27.856 197.911 27.46 199.687 27.46C201.439 27.46 202.903 27.832 204.079 28.576C205.255 29.32 206.143 30.364 206.743 31.708C207.367 33.052 207.679 34.624 207.679 36.424V37.612H194.431V35.236H204.475L203.863 35.74C203.863 34.06 203.503 32.776 202.783 31.888C202.087 31 201.067 30.556 199.723 30.556C198.235 30.556 197.083 31.084 196.267 32.14C195.475 33.196 195.079 34.672 195.079 36.568V37.036C195.079 39.004 195.559 40.48 196.519 41.464C197.503 42.424 198.883 42.904 200.659 42.904C201.691 42.904 202.651 42.772 203.539 42.508C204.451 42.22 205.315 41.764 206.131 41.14L207.463 44.164C206.599 44.86 205.567 45.4 204.367 45.784C203.167 46.168 201.895 46.36 200.551 46.36ZM211.454 46V32.464C211.454 31.696 211.43 30.916 211.382 30.124C211.358 29.332 211.298 28.564 211.202 27.82H215.558L216.062 32.788H215.342C215.582 31.588 215.978 30.592 216.53 29.8C217.106 29.008 217.802 28.42 218.618 28.036C219.434 27.652 220.322 27.46 221.282 27.46C221.714 27.46 222.062 27.484 222.326 27.532C222.59 27.556 222.854 27.616 223.118 27.712L223.082 31.672C222.626 31.48 222.23 31.36 221.894 31.312C221.582 31.264 221.186 31.24 220.706 31.24C219.674 31.24 218.798 31.456 218.078 31.888C217.382 32.32 216.854 32.92 216.494 33.688C216.158 34.456 215.99 35.332 215.99 36.316V46H211.454Z" fill="white"/>
</svg>
