<svg width="104" height="66" viewBox="0 0 104 66" fill="none" xmlns="http://www.w3.org/2000/svg">
<path d="M95.2422 55.5387C88.6406 56.0516 82.0006 55.3746 75.6384 53.5398C67.5171 51.1612 59.7784 47.6315 52.6581 43.0582C38.1819 34.0101 26.0172 22.3661 15.1477 9.30863C14.9513 9.07644 14.6938 8.44067 14.7933 8.33022L11.6908 14.1365C11.9116 13.9678 12.1983 13.9019 12.3359 14.0667C18.3819 21.4408 25.084 28.2516 32.3598 34.4155C40.7936 41.749 50.2449 47.8227 60.4195 52.4473C68.0285 55.9617 76.2264 58.0253 84.5925 58.5319C88.1649 58.7201 91.7378 58.1691 95.0876 56.9132C95.4876 56.8328 95.8663 56.6697 96.1996 56.4344C96.5329 56.1991 96.8133 55.8968 97.023 55.5468C96.379 55.509 95.8128 55.4923 95.2422 55.5387Z" fill="#FF5B2E"/>
<path d="M26.7517 7.09711L8.84918 6.58749L8.35158 24.5922L13.4762 23.7269L13.7695 11.7908L25.71 12.2049L26.7517 7.09711Z" fill="#FF5B2E"/>
</svg>
