<svg width="225" height="209" viewBox="0 0 225 209" fill="none" xmlns="http://www.w3.org/2000/svg">
<path d="M56.1071 98.2701C44.4274 78.6234 66.3015 54.0253 85.9483 42.3456C105.595 30.666 139.577 32.02 151.256 51.6667C162.936 71.3135 136.952 83.413 117.305 95.0926C97.6586 106.772 67.7867 117.917 56.1071 98.2701Z" fill="white"/>
<path d="M160.567 109.219C154.929 99.7345 163.683 85.7846 173.167 80.1461C182.652 74.5077 198.36 72.2554 203.998 81.74C209.637 91.2246 202.109 104.445 192.625 110.084C183.14 115.722 166.206 118.704 160.567 109.219Z" fill="white"/>
<path d="M103.521 140.82C103.38 129.786 117.936 122.082 128.969 121.942C140.002 121.801 154.732 127.704 154.873 138.738C155.013 149.771 141.884 157.457 130.851 157.597C119.818 157.738 103.661 151.853 103.521 140.82Z" fill="white"/>
<path d="M39.5553 132.271C44.1601 122.243 60.6136 121.527 70.6409 126.131C80.6681 130.736 91.4424 142.386 86.8376 152.414C82.2328 162.441 67.0762 163.753 57.0489 159.148C47.0217 154.544 34.9505 142.298 39.5553 132.271Z" fill="white"/>
</svg>
